<svg width="2450" height="1051" viewBox="0 0 2450 1051" fill="none" xmlns="http://www.w3.org/2000/svg">
<path d="M200.685 246.283H348.819V488.922C299.355 498.945 261.475 504.022 219.95 504.022C57.497 504.022 0.221802 410.95 0.221802 257.738C0.221802 93.0722 79.6261 0 237.914 0C257.96 0 295.84 1.43188 343.092 8.59128V163.885H308.727L289.331 104.527C270.717 48.0331 248.588 20.0463 213.442 20.0463C152.652 20.0463 120.37 102.314 120.37 256.307C120.37 410.95 133.256 483.976 212.661 483.976C223.465 483.976 236.222 482.544 248.458 479.029V298.482L200.555 265.549V246.283H200.685ZM345.956 897.659C345.956 995.027 279.438 1050.87 162.024 1050.87C129.872 1050.87 82.62 1045.92 38.2317 1038.63V848.324H72.5968L86.9156 893.363C119.068 997.109 141.978 1031.47 182.852 1031.47C225.808 1031.47 256.528 993.595 256.528 943.479C256.528 902.735 237.263 874.098 195.739 851.839L124.145 813.178C68.9521 783.889 38.8826 738.069 38.8826 682.226C38.8826 597.745 108.264 546.978 222.163 546.978C247.937 546.978 278.007 549.191 325.909 555.57V710.863H291.544L272.279 651.506C252.884 588.503 232.186 565.593 194.307 565.593C152.001 565.593 127.008 592.798 127.008 632.11C127.008 667.126 146.404 692.249 184.283 713.727L256.528 754.471C317.318 788.836 345.956 834.656 345.956 897.659ZM662.401 1010.13L676.72 1031.6V1042.41H567.246L562.17 1000.88C550.715 1032.39 520.645 1051 481.984 1051C424.709 1051 388.912 1015.2 388.912 956.496C388.912 899.221 421.064 861.341 519.864 822.68L562.039 806.279V752.648C562.039 705.396 553.448 686.131 527.023 686.131C505.545 686.131 493.439 697.586 472.612 749.785L449.051 808.231H416.899V691.468C459.074 678.581 501.38 669.99 537.828 669.99C618.664 669.99 662.401 708.651 662.401 778.813V1010.13ZM703.796 313.582C703.796 435.292 638.71 504.022 554.88 504.022C471.18 504.022 406.095 435.292 406.095 313.582C406.095 191.872 471.18 123.142 555.01 123.142C638.71 123.142 703.796 191.872 703.796 313.582ZM562.17 949.987V826.195L548.632 831.922C506.326 849.105 490.576 887.766 490.576 944.26C490.576 986.565 500.599 1010.78 524.16 1010.78C547.721 1010.78 562.17 987.867 562.17 949.987ZM598.618 313.582C598.618 176.121 587.162 139.673 555.01 139.673C522.858 139.673 511.403 176.121 511.403 313.582C511.403 451.042 522.858 487.49 555.01 487.49C587.162 487.49 598.618 451.042 598.618 313.582ZM958.019 953.502L970.906 960.011C947.996 1025.88 918.708 1050.87 862.084 1050.87C769.792 1050.87 718.245 981.489 718.245 860.43C718.245 739.501 778.384 669.99 876.402 669.99C902.827 669.99 937.973 674.285 968.043 686.391V808.101H934.459L920.921 762.281C902.957 701.491 893.064 685.74 875.101 685.74C846.463 685.74 823.553 722.969 823.553 864.725C823.553 978.495 840.736 1020.02 884.343 1020.02C913.631 1020.15 938.624 1001.54 958.019 953.502ZM878.485 495.431H749.616V484.757L763.935 463.278V63.7837L749.616 42.3056V31.5014L864.166 22.9101V463.148L878.485 484.626V495.431ZM1054.61 504.022C975.853 504.022 928.601 432.428 928.601 310.067C928.601 188.357 977.936 123.272 1053.83 123.272C1092.49 123.272 1113.96 138.242 1123.21 168.311V63.7837L1108.89 42.3056V31.5014L1223.44 22.9101V463.148L1237.76 484.626V495.3H1136.09L1128.28 440.889C1116.96 487.49 1095.48 504.022 1054.61 504.022ZM1305.84 1010.13L1320.15 1031.6V1042.41H1191.29V1031.6L1205.6 1010.13V752.388C1205.6 721.668 1196.36 703.053 1174.1 703.053C1147.55 703.053 1128.28 725.312 1128.28 768.92V1010.13L1142.6 1031.6V1042.41H1013.73V1031.6L1028.05 1010.13V610.632L1013.73 589.154V578.48L1128.28 569.888V718.023C1141.17 687.302 1170.46 670.12 1211.98 670.12C1270.69 670.12 1305.71 707.349 1305.71 779.594V1010.13H1305.84ZM1033.91 311.369C1033.91 440.238 1045.36 479.55 1076.87 479.55C1116.18 479.55 1123.34 423.056 1123.34 309.937C1123.34 200.463 1115.53 146.052 1077.52 146.052C1045.36 146.052 1033.91 184.713 1033.91 311.369ZM1752.58 463.148L1766.9 484.626V495.3H1638.03V484.626L1652.35 463.148V197.599C1652.35 171.826 1643.76 156.075 1623.71 156.075C1598.72 156.075 1578.67 178.334 1578.67 221.16V463.148L1592.99 484.626V495.3H1464.12V484.626L1478.44 463.148V197.599C1478.44 171.826 1469.85 156.075 1449.81 156.075C1424.81 156.075 1404.77 178.334 1404.77 221.16V463.148L1419.08 484.626V495.3H1290.22V484.626L1304.53 463.148V171.826L1290.22 154.643V143.969L1393.31 131.733H1401.9L1404.77 171.826C1416.87 140.324 1446.94 123.142 1487.82 123.142C1531.42 123.142 1560.06 144.62 1572.95 183.281C1583.62 146.052 1617.34 123.142 1660.29 123.142C1716.79 123.142 1752.58 160.371 1752.58 232.615V463.148ZM1618.77 937.1C1618.77 999.322 1578.67 1050.87 1482.09 1050.87C1457.09 1050.87 1423.38 1048.01 1371.18 1038.63V905.599H1400.47L1409.71 934.237C1432.62 1007.26 1454.75 1034.47 1489.9 1034.47C1522.83 1034.47 1544.31 1010.78 1544.31 974.329C1544.31 944.26 1529.21 923.563 1493.54 904.167L1431.97 871.234C1392.66 849.756 1371.18 816.172 1371.18 774.647C1371.18 709.562 1422.08 670.12 1506.43 670.12C1530.77 670.12 1562.27 673.635 1596.64 680.794V785.321H1567.35L1552.25 747.311C1535.07 701.491 1518.67 686.521 1491.46 686.521C1462.17 686.521 1444.99 703.704 1444.99 732.342C1444.99 756.684 1459.31 773.085 1494.32 793.131L1555.11 827.497C1596.51 851.188 1618.77 884.772 1618.77 937.1ZM2081.92 463.148L2096.23 484.626V495.3H1986.76L1981.81 453.776C1970.36 485.277 1940.29 503.892 1901.63 503.892C1844.35 503.892 1808.56 468.095 1808.56 409.388C1808.56 352.112 1840.71 314.233 1939.51 275.572L1981.68 259.17V205.54C1981.68 158.288 1973.09 139.023 1946.67 139.023C1925.19 139.023 1913.08 150.478 1892.26 202.676L1868.7 261.383H1836.41V144.75C1878.72 131.863 1920.89 123.272 1957.34 123.272C2038.18 123.272 2081.92 161.933 2081.92 232.095V463.148ZM1981.68 403.009V279.217L1968.15 284.944C1925.97 302.127 1910.22 340.787 1910.22 397.282C1910.22 439.587 1920.24 463.929 1943.8 463.929C1967.36 463.929 1981.68 441.019 1981.68 403.009ZM2449.78 484.626V495.3H2320.91V484.626L2335.23 463.148V205.41C2335.23 174.559 2325.99 156.075 2303.73 156.075C2277.17 156.075 2257.91 178.334 2257.91 221.941V463.148L2272.22 484.626V495.3H2143.36V484.626L2157.67 463.148V171.826L2143.36 154.643V143.969L2246.45 131.733H2255.04L2257.91 171.826C2270.01 140.324 2299.43 123.142 2341.61 123.142C2400.31 123.142 2435.33 160.371 2435.33 232.615V463.148L2449.78 484.626Z" fill="white"/>
</svg>
